<svg xmlns="http://www.w3.org/2000/svg" viewBox="0 0 938.01 429.63"><g id="Layer_3" data-name="Layer 3"><path d="M197.77,363c64,4.31,131.58-21.54,198,29.82C324.69,381.82,256.72,411.52,197.77,363Z" transform="translate(-197.77 -206.13)"/><path d="M235.08,635.75c0-52.42-1.5-103.47.54-154.38,1.3-32.39,32.23-49.18,51.61-75.12,0,34.14-2.58,68.53.6,102.38C292.65,559.91,282.79,603.7,235.08,635.75Z" transform="translate(-197.77 -206.13)"/><path d="M297.28,635.75c0-52.42-1.5-103.47.54-154.38,1.31-32.39,32.23-49.18,51.62-75.12,0,34.14-2.58,68.53.6,102.38C354.86,559.91,345,603.7,297.28,635.75Z" transform="translate(-197.77 -206.13)"/><path d="M705.43,634.43c-85.83,0-165,3.93-243.56-1.72-37-2.66-69.16-30.94-102.92-52.11H552.37C626.69,580.6,633.3,582.81,705.43,634.43Z" transform="translate(-197.77 -206.13)"/><path d="M377.94,520.48c79,0,158.25-3.93,236.83,1.73,36.94,2.66,69,30.87,102.66,51.79-84.55,0-169.26,3-253.55-1.58C432.33,570.69,406.66,542,377.94,520.48Z" transform="translate(-197.77 -206.13)"/><path d="M787.65,297c0,74.71-.56,149.43.3,224.13.31,26.62-16.36,45.63-25.78,67.87a192.7,192.7,0,0,1-28,46.74c0-75.86,1.68-151.77-.61-227.57-1.43-47.28,31.13-75.87,47.42-113.31Z" transform="translate(-197.77 -206.13)"/><path d="M804.45,635.75c0-52.42-1.5-103.47.55-154.38,1.3-32.39,32.22-49.18,51.61-75.12,0,34.14-2.58,68.53.6,102.38C862,559.91,852.17,603.7,804.45,635.75Z" transform="translate(-197.77 -206.13)"/><path d="M874.81,635.75c0-52.42-1.51-103.47.54-154.38,1.3-32.39,32.23-49.18,51.61-75.12,0,34.14-2.58,68.53.6,102.38C932.38,559.91,922.52,603.7,874.81,635.75Z" transform="translate(-197.77 -206.13)"/><path d="M942.35,635.75c0-52.42-1.5-103.47.54-154.38,1.3-32.39,32.23-49.18,51.61-75.12,0,34.14-2.58,68.53.6,102.38C999.92,559.91,990.06,603.7,942.35,635.75Z" transform="translate(-197.77 -206.13)"/><path d="M1066.72,297c0,74.71-.56,149.42.3,224.12.31,26.62-16.36,45.64-25.78,67.88a192.66,192.66,0,0,1-28,46.74c0-75.86,1.67-151.78-.62-227.57-1.43-47.28,31.13-75.87,47.42-113.32Z" transform="translate(-197.77 -206.13)"/><path d="M949.66,304.73C1007.2,276.27,1052.58,220,1135.78,231,1068.85,257.23,1025,317.07,949.66,304.73Z" transform="translate(-197.77 -206.13)"/><path d="M988.71,246.07c28.75-15.06,51-44,93.22-39.45C1048.4,220.65,1026.94,251.42,988.71,246.07Z" transform="translate(-197.77 -206.13)"/></g></svg>